<?xml version="1.0" encoding="UTF-8"?>
<svg id="_04" data-name="04" xmlns="http://www.w3.org/2000/svg" viewBox="0 0 112.48 148.69" >
   <defs>
     <style>
      .cls-1 {
        fill: #ffffff;
      }
    </style>
  </defs> 
  <path id="logo" class="cls-1" d="m94.45,97.47c.57-.53,1.13-1.07,1.68-1.63.08-.08.15-.16.23-.23.08-.08.16-.16.24-.24.12-.12.24-.25.36-.38.11-.11.22-.23.33-.34.35-.36.68-.73,1.01-1.1.16-.18.32-.36.47-.54.17-.19.34-.38.49-.58.06-.07.12-.14.18-.21.08-.1.16-.19.24-.29.13-.17.27-.33.4-.5.09-.11.18-.22.27-.34.03-.03.05-.06.08-.09.19-.25.39-.5.59-.76.08-.11.16-.21.24-.32.14-.18.27-.36.4-.54.13-.17.25-.35.38-.52.07-.1.14-.2.21-.3.01-.02.03-.04.04-.06.11-.15.21-.3.31-.45.2-.29.4-.58.6-.88.2-.3.4-.61.59-.92.09-.15.19-.29.28-.43,0,0,0,0,0-.01,0,0,0-.01.01-.02.12-.2.24-.4.36-.6.05-.09.11-.17.16-.26.04-.07.08-.14.12-.21.04-.07.08-.15.13-.22.11-.18.21-.37.32-.55.13-.23.25-.45.38-.68.22-.4.44-.81.66-1.22,4.01-7.73,6.27-16.5,6.27-25.78,0-21.82-12.49-40.77-30.69-50.09-7.67-3.93-16.35-6.15-25.55-6.15-6.97,0-13.66,1.28-19.82,3.61C15.44,11.53.41,31.65,0,55.27c0,.32,0,.64,0,.97,0,9.29,2.26,18.06,6.27,25.78.19.36.37.71.57,1.07.17.32.35.63.53.95.22.38.44.76.67,1.14.17.28.34.56.51.83.05.09.11.17.16.26.2.32.4.63.61.94.25.38.51.76.78,1.14.19.28.39.56.59.83,0,0,0,0,0,0,.23.32.47.64.71.96.22.29.44.57.66.86.03.03.05.06.08.09.23.29.47.58.71.87.12.15.25.3.38.45.19.23.39.47.6.7.15.17.3.34.45.51.13.16.27.31.42.47.17.19.34.37.51.56.3.32.6.63.9.94.56.57,1.12,1.12,1.71,1.66.07.07.15.14.23.21-9.93,3.83-17,13.47-17,24.73,0,14.61,11.89,26.5,26.5,26.5,2.05,0,4.05-.23,5.97-.68,11.74-2.72,20.53-13.26,20.53-25.82,0-.19,0-.39,0-.59-.16-7.15-3.16-13.61-7.92-18.29,1.93-.09,3.83-.28,5.7-.56,3.94-.6,7.75-1.61,11.37-2.98,3.96-1.5,7.72-3.44,11.2-5.75,1.19-.78,2.35-1.62,3.46-2.49,2.56-2,4.95-4.21,7.12-6.62.4-.43.78-.86,1.14-1.3.04-.04.07-.07.09-.1,1.91-2.12,3.6-4.43,5.03-6.92,0-.01.02-.02.02-.04,3.41-5.92,5.36-12.78,5.36-20.08,0-12.74-5.93-24.13-15.19-31.53-2.53-2.03-5.32-3.76-8.3-5.14-5.14-2.38-10.86-3.7-16.88-3.7-5.43,0-10.62,1.08-15.35,3.03-13.82,5.7-23.8,18.86-24.92,34.43-.07.96-.11,1.93-.11,2.91,0,10.65,4.14,20.35,10.91,27.57,5.14,2.38,10.85,3.7,16.88,3.7,5.44,0,10.63-1.08,15.37-3.04,5.03-2.08,9.54-5.14,13.31-8.95.41-.41.8-.82,1.19-1.25.04-.04.07-.07.09-.1.27-.3.54-.61.8-.92,1.45-1.55,2.71-3.28,3.73-5.16.01-.02.02-.03.03-.05,1.9-3.5,2.97-7.51,2.97-11.77,0-8.91-4.72-16.75-11.79-21.13-3.79-2.35-8.26-3.71-13.04-3.71-13.7,0-24.84,11.14-24.84,24.84,0,7.64,3.47,14.49,8.91,19.04-2.22-.26-4.36-.77-6.4-1.51-3.82-4.84-6.11-10.94-6.11-17.57,0-15.64,12.72-28.37,28.36-28.37,3.39,0,6.65.6,9.67,1.7,9,3.27,15.88,10.97,18.01,20.45.45,2,.69,4.08.69,6.21,0,4.13-.89,8.05-2.48,11.6-1.61,2.98-3.57,5.76-5.8,8.28-.31.35-.63.7-.96,1.04-1.45,1.54-3.01,2.97-4.67,4.28-1.08.86-2.21,1.68-3.38,2.43-6.9,4.5-15.15,7.12-23.99,7.12-3.14,0-6.22-.33-9.17-.96-3.24-.69-6.36-1.74-9.29-3.1-2.46-2.5-4.62-5.27-6.44-8.29-3.99-6.63-6.28-14.38-6.28-22.65,0-24.31,19.78-44.09,44.08-44.09,2.91,0,5.76.29,8.51.83,3.49.68,6.83,1.78,9.98,3.24,12.74,5.9,22.2,17.71,24.85,31.89.49,2.64.75,5.35.75,8.13,0,12.14-4.93,23.14-12.89,31.12-1.21,1.21-2.49,2.35-3.83,3.42,0,0,0,0,0,0-1.15.77-2.28,1.58-3.38,2.43h0c-1.72,1.34-3.36,2.78-4.92,4.3-9.69,3.79-16.62,13.14-16.86,24.09,0,.19,0,.39,0,.59,0,12.56,8.79,23.1,20.53,25.82,1.92.45,3.92.68,5.97.68,14.61,0,26.5-11.89,26.5-26.5,0-11.26-7.07-20.9-16.99-24.73Zm-38.14-53.6c6.98,0,12.66,5.68,12.66,12.66,0,3.48-1.41,6.63-3.68,8.92-2.3,2.31-5.48,3.74-8.98,3.74-6.98,0-12.66-5.67-12.66-12.66s5.68-12.66,12.66-12.66Zm-28.77,91.47c-7.24,0-13.14-5.89-13.14-13.14s5.89-13.14,13.14-13.14,13.14,5.89,13.14,13.14-5.89,13.14-13.14,13.14Zm57.4,0c-7.24,0-13.14-5.89-13.14-13.14s5.89-13.14,13.14-13.14,13.14,5.89,13.14,13.14-5.89,13.14-13.14,13.14Z"/>
</svg>